<svg xmlns="http://www.w3.org/2000/svg" viewBox="0 0 960 580" font-family="Arial, sans-serif">
  <defs>
    <marker id="arr-b" viewBox="0 0 10 7" refX="10" refY="3.5" markerWidth="8" markerHeight="6" orient="auto-start-auto"><path d="M 0 0 L 10 3.5 L 0 7 z" fill="#93C5FD"/></marker>
    <marker id="arr-g" viewBox="0 0 10 7" refX="10" refY="3.5" markerWidth="8" markerHeight="6" orient="auto-start-auto"><path d="M 0 0 L 10 3.5 L 0 7 z" fill="#6EE7B7"/></marker>
    <marker id="arr-p" viewBox="0 0 10 7" refX="10" refY="3.5" markerWidth="8" markerHeight="6" orient="auto-start-auto"><path d="M 0 0 L 10 3.5 L 0 7 z" fill="#C4B5FD"/></marker>
    <marker id="arr-x" viewBox="0 0 10 7" refX="10" refY="3.5" markerWidth="8" markerHeight="6" orient="auto-start-auto"><path d="M 0 0 L 10 3.5 L 0 7 z" fill="#9CA3AF"/></marker>
  </defs>

  <!-- Background -->
  <rect width="960" height="580" rx="14" fill="#FAFAFA" stroke="#E5E7EB" stroke-width="1"/>

  <!-- Title -->
  <text x="480" y="26" text-anchor="middle" font-size="15" font-weight="700" fill="#111827">All 25 Skills — End-to-End Pipeline</text>

  <!-- ═══════════ META PROCESS LAYER ═══════════ -->
  <rect x="15" y="40" width="930" height="60" rx="10" fill="#FFFBEB" stroke="#FCD34D" stroke-width="1"/>
  <text x="28" y="57" font-size="10" font-weight="700" fill="#92400E">META — process wrappers (5 skills, use at any stage)</text>

  <rect x="28" y="64" width="100" height="28" rx="5" fill="#FEF3C7" stroke="#F59E0B" stroke-width="1.2"/>
  <text x="78" y="82" text-anchor="middle" font-size="10" font-weight="600" fill="#92400E">discover</text>

  <rect x="140" y="64" width="110" height="28" rx="5" fill="#FEF3C7" stroke="#F59E0B" stroke-width="1.2"/>
  <text x="195" y="82" text-anchor="middle" font-size="10" font-weight="600" fill="#92400E">agent-room</text>

  <rect x="262" y="64" width="130" height="28" rx="5" fill="#FEF3C7" stroke="#F59E0B" stroke-width="1.2"/>
  <text x="327" y="82" text-anchor="middle" font-size="10" font-weight="600" fill="#92400E">task-breakdown</text>

  <rect x="404" y="64" width="120" height="28" rx="5" fill="#FEF3C7" stroke="#F59E0B" stroke-width="1.2"/>
  <text x="464" y="82" text-anchor="middle" font-size="10" font-weight="600" fill="#92400E">review-chain</text>

  <rect x="536" y="64" width="100" height="28" rx="5" fill="#FEF3C7" stroke="#F59E0B" stroke-width="1.2"/>
  <text x="586" y="82" text-anchor="middle" font-size="10" font-weight="600" fill="#92400E">navigate</text>

  <!-- ═══════════ RESEARCH PIPELINE ═══════════ -->
  <rect x="15" y="112" width="930" height="110" rx="10" fill="#EFF6FF" stroke="#BFDBFE" stroke-width="1"/>
  <text x="28" y="129" font-size="10" font-weight="700" fill="#1E40AF">RESEARCH — understand market and decide what to do (6 pipeline skills)</text>

  <!-- icp-research -->
  <rect x="28" y="140" width="115" height="38" rx="6" fill="#DBEAFE" stroke="#2563EB" stroke-width="1.5"/>
  <text x="85" y="158" text-anchor="middle" font-size="11" font-weight="600" fill="#1E3A5F">icp-research</text>
  <text x="85" y="172" text-anchor="middle" font-size="7" fill="#3B82F6">audience profiles</text>

  <path d="M 143 159 L 170 152" stroke="#93C5FD" stroke-width="1.2" fill="none" marker-end="url(#arr-b)"/>
  <path d="M 143 159 L 170 168" stroke="#93C5FD" stroke-width="1.2" fill="none" marker-end="url(#arr-b)"/>

  <!-- market-research -->
  <rect x="180" y="136" width="140" height="28" rx="5" fill="#DBEAFE" stroke="#3B82F6" stroke-width="1"/>
  <text x="250" y="154" text-anchor="middle" font-size="10" fill="#1E3A5F">market-research</text>

  <!-- problem-analysis -->
  <rect x="180" y="170" width="140" height="28" rx="5" fill="#DBEAFE" stroke="#3B82F6" stroke-width="1"/>
  <text x="250" y="188" text-anchor="middle" font-size="10" fill="#1E3A5F">problem-analysis</text>

  <text x="250" y="210" text-anchor="middle" font-size="7" fill="#6B7280" font-style="italic">run in parallel</text>

  <!-- Arrows converge to solution-design -->
  <path d="M 320 150 L 355 160" stroke="#93C5FD" stroke-width="1.2" fill="none" marker-end="url(#arr-b)"/>
  <path d="M 320 184 L 355 168" stroke="#93C5FD" stroke-width="1.2" fill="none" marker-end="url(#arr-b)"/>

  <!-- solution-design -->
  <rect x="365" y="140" width="135" height="42" rx="6" fill="#DBEAFE" stroke="#2563EB" stroke-width="1.5"/>
  <text x="432" y="159" text-anchor="middle" font-size="11" font-weight="600" fill="#1E3A5F">solution-design</text>
  <text x="432" y="174" text-anchor="middle" font-size="7" fill="#3B82F6">ICE scoring + trade-offs</text>

  <path d="M 500 161 L 540 161" stroke="#93C5FD" stroke-width="1.2" fill="none" marker-end="url(#arr-b)"/>

  <!-- funnel-planner -->
  <rect x="550" y="142" width="130" height="38" rx="6" fill="#DBEAFE" stroke="#3B82F6" stroke-width="1"/>
  <text x="615" y="160" text-anchor="middle" font-size="11" fill="#1E3A5F">funnel-planner</text>
  <text x="615" y="174" text-anchor="middle" font-size="7" fill="#3B82F6">revenue targets</text>

  <path d="M 680 161 L 720 161" stroke="#93C5FD" stroke-width="1.2" fill="none" marker-end="url(#arr-b)"/>

  <!-- experiment -->
  <rect x="730" y="142" width="115" height="38" rx="6" fill="#DBEAFE" stroke="#3B82F6" stroke-width="1"/>
  <text x="787" y="160" text-anchor="middle" font-size="11" fill="#1E3A5F">experiment</text>
  <text x="787" y="174" text-anchor="middle" font-size="7" fill="#3B82F6">MVP tests</text>

  <!-- ═══════════ PRODUCT PIPELINE ═══════════ -->
  <rect x="15" y="234" width="930" height="130" rx="10" fill="#ECFDF5" stroke="#A7F3D0" stroke-width="1"/>
  <text x="28" y="251" font-size="10" font-weight="700" fill="#065F46">PRODUCT — design and build software (6 skills: 4 pipeline + 2 horizontal)</text>

  <!-- user-flow -->
  <rect x="28" y="262" width="120" height="38" rx="6" fill="#D1FAE5" stroke="#059669" stroke-width="1.5"/>
  <text x="88" y="280" text-anchor="middle" font-size="11" font-weight="600" fill="#064E3B">user-flow</text>
  <text x="88" y="294" text-anchor="middle" font-size="7" fill="#047857">screens + edges</text>

  <path d="M 148 281 L 185 281" stroke="#6EE7B7" stroke-width="1.2" fill="none" marker-end="url(#arr-g)"/>

  <!-- system-architecture -->
  <rect x="195" y="262" width="165" height="38" rx="6" fill="#D1FAE5" stroke="#059669" stroke-width="1.5"/>
  <text x="277" y="280" text-anchor="middle" font-size="11" font-weight="600" fill="#064E3B">system-architecture</text>
  <text x="277" y="294" text-anchor="middle" font-size="7" fill="#047857">stack, schema, API, security</text>

  <path d="M 360 281 L 395 281" stroke="#6EE7B7" stroke-width="1.2" fill="none" marker-end="url(#arr-g)"/>
  <text x="377" y="275" font-size="7" fill="#6B7280" font-style="italic">build</text>

  <!-- ship -->
  <rect x="405" y="262" width="80" height="38" rx="6" fill="#D1FAE5" stroke="#059669" stroke-width="1.5"/>
  <text x="445" y="280" text-anchor="middle" font-size="11" font-weight="600" fill="#064E3B">ship</text>
  <text x="445" y="294" text-anchor="middle" font-size="7" fill="#047857">test + PR</text>

  <path d="M 485 281 L 520 281" stroke="#6EE7B7" stroke-width="1.2" fill="none" marker-end="url(#arr-g)"/>

  <!-- deploy-verify -->
  <rect x="530" y="262" width="130" height="38" rx="6" fill="#D1FAE5" stroke="#059669" stroke-width="1.5"/>
  <text x="595" y="280" text-anchor="middle" font-size="11" font-weight="600" fill="#064E3B">deploy-verify</text>
  <text x="595" y="294" text-anchor="middle" font-size="7" fill="#047857">health check</text>

  <!-- Horizontal label -->
  <text x="28" y="318" font-size="8" font-weight="600" fill="#065F46">HORIZONTAL:</text>

  <!-- code-cleanup (horizontal) -->
  <rect x="100" y="308" width="125" height="26" rx="5" fill="#ECFDF5" stroke="#6EE7B7" stroke-width="1" stroke-dasharray="4 2"/>
  <text x="162" y="325" text-anchor="middle" font-size="10" fill="#047857">code-cleanup</text>

  <!-- technical-writer (horizontal) -->
  <rect x="238" y="308" width="140" height="26" rx="5" fill="#ECFDF5" stroke="#6EE7B7" stroke-width="1" stroke-dasharray="4 2"/>
  <text x="308" y="325" text-anchor="middle" font-size="10" fill="#047857">technical-writer</text>

  <text x="400" y="325" font-size="7" fill="#6B7280" font-style="italic">use at any point during build</text>

  <!-- ═══════════ MARKETING PIPELINE ═══════════ -->
  <rect x="15" y="376" width="930" height="138" rx="10" fill="#F5F3FF" stroke="#DDD6FE" stroke-width="1"/>
  <text x="28" y="393" font-size="10" font-weight="700" fill="#5B21B6">MARKETING — create, optimize, and measure (8 skills: 4 pipeline + 4 horizontal)</text>

  <!-- brand-system -->
  <rect x="28" y="404" width="120" height="38" rx="6" fill="#EDE9FE" stroke="#7C3AED" stroke-width="1.5"/>
  <text x="88" y="422" text-anchor="middle" font-size="11" font-weight="600" fill="#3B1F6E">brand-system</text>
  <text x="88" y="436" text-anchor="middle" font-size="7" fill="#7C3AED">visual identity</text>

  <path d="M 148 423 L 195 423" stroke="#C4B5FD" stroke-width="1.2" fill="none" marker-end="url(#arr-p)"/>

  <!-- imc-plan -->
  <rect x="205" y="404" width="110" height="38" rx="6" fill="#EDE9FE" stroke="#7C3AED" stroke-width="1"/>
  <text x="260" y="422" text-anchor="middle" font-size="11" fill="#3B1F6E">imc-plan</text>
  <text x="260" y="436" text-anchor="middle" font-size="7" fill="#7C3AED">channel strategy</text>

  <path d="M 315 423 L 355 423" stroke="#C4B5FD" stroke-width="1.2" fill="none" marker-end="url(#arr-p)"/>

  <!-- content-create -->
  <rect x="365" y="404" width="135" height="38" rx="6" fill="#EDE9FE" stroke="#7C3AED" stroke-width="1"/>
  <text x="432" y="422" text-anchor="middle" font-size="11" fill="#3B1F6E">content-create</text>
  <text x="432" y="436" text-anchor="middle" font-size="7" fill="#7C3AED">drafts + A/B variants</text>

  <path d="M 500 423 L 540 423" stroke="#C4B5FD" stroke-width="1.2" fill="none" marker-end="url(#arr-p)"/>

  <!-- attribution -->
  <rect x="550" y="404" width="115" height="38" rx="6" fill="#EDE9FE" stroke="#7C3AED" stroke-width="1"/>
  <text x="607" y="422" text-anchor="middle" font-size="11" fill="#3B1F6E">attribution</text>
  <text x="607" y="436" text-anchor="middle" font-size="7" fill="#7C3AED">channel ROI</text>

  <!-- Horizontal label -->
  <text x="28" y="460" font-size="8" font-weight="600" fill="#5B21B6">HORIZONTAL:</text>

  <!-- copywriting -->
  <rect x="100" y="450" width="115" height="26" rx="5" fill="#F5F3FF" stroke="#C4B5FD" stroke-width="1" stroke-dasharray="4 2"/>
  <text x="157" y="467" text-anchor="middle" font-size="10" fill="#5B21B6">copywriting</text>

  <!-- lp-optimization -->
  <rect x="228" y="450" width="135" height="26" rx="5" fill="#F5F3FF" stroke="#C4B5FD" stroke-width="1" stroke-dasharray="4 2"/>
  <text x="295" y="467" text-anchor="middle" font-size="10" fill="#5B21B6">lp-optimization</text>

  <!-- seo -->
  <rect x="376" y="450" width="65" height="26" rx="5" fill="#F5F3FF" stroke="#C4B5FD" stroke-width="1" stroke-dasharray="4 2"/>
  <text x="408" y="467" text-anchor="middle" font-size="10" fill="#5B21B6">seo</text>

  <!-- humanize -->
  <rect x="454" y="450" width="100" height="26" rx="5" fill="#F5F3FF" stroke="#C4B5FD" stroke-width="1" stroke-dasharray="4 2"/>
  <text x="504" y="467" text-anchor="middle" font-size="10" fill="#5B21B6">humanize</text>

  <text x="572" y="467" font-size="7" fill="#6B7280" font-style="italic">use at any point in marketing</text>

  <!-- ═══════════ CROSS-STACK ARTIFACT FLOW ═══════════ -->
  <text x="28" y="535" font-size="9" font-weight="700" fill="#6B7280">CROSS-STACK ARTIFACTS</text>

  <text x="28" y="552" font-size="8" fill="#6B7280">product-context.md (icp-research) → feeds 12+ downstream skills across all stacks</text>
  <text x="28" y="566" font-size="8" fill="#6B7280">solution-design.md → system-architecture, imc-plan, attribution</text>
  <text x="500" y="552" font-size="8" fill="#6B7280">targets.md → attribution, experiment</text>
  <text x="500" y="566" font-size="8" fill="#6B7280">user-flow.md → system-architecture, task-breakdown</text>

  <!-- Cross-stack arrows (Research → Product) -->
  <path d="M 480 222 L 480 234" stroke="#9CA3AF" stroke-width="1" fill="none" marker-end="url(#arr-x)" stroke-dasharray="4 3"/>
  <text x="490" y="232" font-size="7" fill="#9CA3AF" font-style="italic">artifacts</text>

  <!-- Cross-stack arrows (Product → Marketing) -->
  <path d="M 480 364 L 480 376" stroke="#9CA3AF" stroke-width="1" fill="none" marker-end="url(#arr-x)" stroke-dasharray="4 3"/>
  <text x="490" y="374" font-size="7" fill="#9CA3AF" font-style="italic">artifacts</text>

  <!-- Cross-stack arrows (Research → Marketing) -->
  <path d="M 925 222 L 925 376" stroke="#9CA3AF" stroke-width="1" fill="none" marker-end="url(#arr-x)" stroke-dasharray="4 3"/>
  <text x="900" y="300" font-size="7" fill="#9CA3AF" font-style="italic" transform="rotate(90 900 300)">research → marketing</text>

  <!-- Stats -->
  <text x="720" y="535" font-size="8" fill="#9CA3AF">25 skills | ~139 specialized agents</text>
  <text x="720" y="549" font-size="8" fill="#9CA3AF">14 pipeline | 6 horizontal | 5 meta</text>

  <!-- Legend -->
  <rect x="720" y="558" width="30" height="10" rx="3" fill="#DBEAFE" stroke="#3B82F6" stroke-width="0.8"/>
  <text x="756" y="567" font-size="7" fill="#6B7280">pipeline</text>
  <rect x="800" y="558" width="30" height="10" rx="3" fill="#F9FAFB" stroke="#9CA3AF" stroke-width="0.8" stroke-dasharray="3 2"/>
  <text x="836" y="567" font-size="7" fill="#6B7280">horizontal</text>
  <rect x="880" y="558" width="30" height="10" rx="3" fill="#FEF3C7" stroke="#F59E0B" stroke-width="0.8"/>
  <text x="916" y="567" font-size="7" fill="#6B7280">meta</text>
</svg>